<?xml version="1.0" encoding="UTF-8" standalone="no"?>
<svg
   width="48"
   height="48"
   fill="none"
   version="1.1"
   id="svg6"
   sodipodi:docname="logo-wallapop-home-v2.svg"
   inkscape:version="1.4 (86a8ad7, 2024-10-11)"
   xmlns:inkscape="http://www.inkscape.org/namespaces/inkscape"
   xmlns:sodipodi="http://sodipodi.sourceforge.net/DTD/sodipodi-0.dtd"
   xmlns="http://www.w3.org/2000/svg"
   xmlns:svg="http://www.w3.org/2000/svg">
  <sodipodi:namedview
     id="namedview6"
     pagecolor="#ffffff"
     bordercolor="#000000"
     borderopacity="0.25"
     inkscape:showpageshadow="2"
     inkscape:pageopacity="0.0"
     inkscape:pagecheckerboard="0"
     inkscape:deskcolor="#d1d1d1"
     inkscape:zoom="1.6479838"
     inkscape:cx="40.655739"
     inkscape:cy="33.070713"
     inkscape:window-width="1366"
     inkscape:window-height="715"
     inkscape:window-x="-8"
     inkscape:window-y="371"
     inkscape:window-maximized="1"
     inkscape:current-layer="svg6" />
  <g
     filter="url(#a)"
     id="g1">
    <path
       fill-rule="evenodd"
       clip-rule="evenodd"
       d="M 4,16 C 4,8.268 10.268,2 18,2 h 12 c 7.732,0 14,6.268 14,14 v 12 c 0,7.732 -6.268,14 -14,14 H 18 C 10.268,42 4,35.732 4,28 Z"
       fill="#13C1AC"
       id="path1"
       style="fill:#ddce2e;fill-opacity:1" />
  </g>
  <path
     fill-rule="evenodd"
     clip-rule="evenodd"
     d="m 35.365001,22.003001 c -0.437,-2.2 -1.814,-3.245 -2.162,-3.462 a 0.46,0.46 0 0 1 -0.232,-0.444 c 0.122,-4.045001 -2.744,-7.536001 -6.744,-7.526001 -2.556,0.007 -4.152,1.151 -5.47,2.722 -0.15,0.177 -0.411,0.158 -0.615,0.05 -2.582,-1.38 -5.657,-0.45 -6.957,2.106001 -1.128,2.216 -0.68,4.74 1.151,6.385 a 0.553,0.553 0 0 1 0.094,0.693 c -1.598,2.572 -0.872,5.994 1.625,7.64 a 5.23,5.23 0 0 0 4.573,0.596 c 0.271,-0.08 0.467,0 0.599,0.21 1.657,2.515 4.983,3.233 7.467,1.569 a 5.617,5.617 0 0 0 2.429,-4.017 c 0.024,-0.2 0.152,-0.39 0.342,-0.44 3.697,-0.974 4.205,-4.55 3.9,-6.082 z m -6.172,5.369 a 3.698,3.698 0 0 1 -0.57,1.882 c -1.063,1.684 -3.25,2.161 -4.886,1.066 -1.635,-1.095 -2.098,-3.348 -1.035,-5.032 a 0.765,0.765 0 0 0 -0.212,-1.043 0.732,0.732 0 0 0 -1.026,0.214 5.48,5.48 0 0 0 -0.981,3.79 0.506,0.506 0 0 1 -0.393,0.555 3.606,3.606 0 0 1 -2.56,-0.421 c -1.777,-1.039 -2.4,-3.364 -1.392,-5.195 0.113,-0.202 0.322,-0.324 0.557,-0.261 0.455,0.13 0.925,0.192 1.396,0.187 a 0.683,0.683 0 0 0 0.668,-0.698 0.686,0.686 0 0 0 -0.631,-0.686 c -0.663,-0.042 -1.28,-0.189 -1.823,-0.585 -1.662,-1.21 -1.938,-3.448 -0.785,-5.068 1.1,-1.547001 3.307,-1.866001 4.902,-0.56 0.007,0.005 0.054,0.054 0.06,0.06 0.314,0.234 0.858,0.105 1.035,-0.25 0.345,-0.697001 0.895,-1.164001 1.182,-1.379001 2.266,-1.695 5.166,-1.446 6.984,0.747 1.87,2.256001 1.566,5.546001 -0.805,7.519001 -0.315,0.261 -0.341,0.752 -0.076,1.068 0.252,0.3 0.704,0.353 1.012,0.113 0.808,-0.628 1.558,-1.485 2.022,-2.413 a 0.59,0.59 0 0 1 0.194,-0.232 c 0.234,-0.144 0.534,-0.03 0.673,0.211 0.288,0.5 0.54,1.246 0.572,1.825 0.113,2.006 -1.424,3.73 -3.37,3.846 -0.459,0.019 -0.71,0.286 -0.712,0.74 z"
     fill="#ffffff"
     id="path2" />
  <defs
     id="defs6">
    <clipPath
       id="b">
      <path
         fill="#ffffff"
         transform="translate(56,6.38)"
         d="M 0,0 H 126.545 V 32 H 0 Z"
         id="path4" />
    </clipPath>
    <filter
       id="a"
       x="0"
       y="0"
       width="48"
       height="48"
       filterUnits="userSpaceOnUse"
       color-interpolation-filters="sRGB">
      <feFlood
         flood-opacity="0"
         result="BackgroundImageFix"
         id="feFlood4" />
      <feColorMatrix
         in="SourceAlpha"
         values="0 0 0 0 0 0 0 0 0 0 0 0 0 0 0 0 0 0 127 0"
         result="hardAlpha"
         id="feColorMatrix4" />
      <feOffset
         dy="2"
         id="feOffset4" />
      <feGaussianBlur
         stdDeviation="2"
         id="feGaussianBlur4" />
      <feColorMatrix
         values="0 0 0 0 0.145098 0 0 0 0 0.196078 0 0 0 0 0.219608 0 0 0 0.1 0"
         id="feColorMatrix5" />
      <feBlend
         in2="BackgroundImageFix"
         result="effect1_dropShadow_7634_6626"
         id="feBlend5"
         mode="normal" />
      <feBlend
         in="SourceGraphic"
         in2="effect1_dropShadow_7634_6626"
         result="shape"
         id="feBlend6"
         mode="normal" />
    </filter>
  </defs>
</svg>
